<svg width="153" height="24" viewBox="0 0 153 24" fill="none" xmlns="http://www.w3.org/2000/svg">
<path d="M18.116 8.44C17.9107 9.59733 17.4347 10.5587 16.688 11.324C15.9413 12.0893 15.0453 12.6213 14 12.92C14.9333 13.1253 15.6707 13.5827 16.212 14.292C16.7533 15.0013 17.024 15.832 17.024 16.784C17.024 17.0827 16.996 17.372 16.94 17.652C16.66 19.2947 15.8573 20.6013 14.532 21.572C13.2067 22.524 11.5173 23 9.464 23H0.308L3.78 3.344H12.628C14.4013 3.344 15.7733 3.708 16.744 4.436C17.7147 5.164 18.2 6.172 18.2 7.46C18.2 7.77733 18.172 8.104 18.116 8.44ZM10.276 11.324C11.0787 11.324 11.7227 11.1467 12.208 10.792C12.6933 10.4373 12.992 9.924 13.104 9.252C13.1227 9.14 13.132 8.99067 13.132 8.804C13.132 8.26267 12.9547 7.852 12.6 7.572C12.2453 7.27333 11.7227 7.124 11.032 7.124H7.896L7.168 11.324H10.276ZM12.18 17.008C12.2173 16.784 12.236 16.616 12.236 16.504C12.236 15.9627 12.04 15.5427 11.648 15.244C11.256 14.9267 10.7147 14.768 10.024 14.768H6.552L5.768 19.192H9.296C10.1173 19.192 10.7707 19.0053 11.256 18.632C11.7413 18.2587 12.0493 17.7173 12.18 17.008ZM25.905 23.224C24.561 23.224 23.3664 22.9533 22.321 22.412C21.2757 21.8707 20.4637 21.1053 19.885 20.116C19.325 19.1267 19.045 17.9787 19.045 16.672C19.045 14.8987 19.465 13.284 20.305 11.828C21.145 10.372 22.3024 9.23333 23.777 8.412C25.2517 7.572 26.8944 7.152 28.705 7.152C30.049 7.152 31.2437 7.432 32.289 7.992C33.353 8.53333 34.1744 9.29867 34.753 10.288C35.3317 11.2773 35.621 12.4253 35.621 13.732C35.621 15.524 35.1917 17.148 34.333 18.604C33.493 20.0413 32.3264 21.1707 30.833 21.992C29.3584 22.8133 27.7157 23.224 25.905 23.224ZM26.577 19.108C27.361 19.108 28.061 18.8747 28.677 18.408C29.3117 17.9227 29.797 17.3067 30.133 16.56C30.4877 15.7947 30.665 15.0013 30.665 14.18C30.665 13.2467 30.413 12.528 29.909 12.024C29.405 11.52 28.7704 11.268 28.005 11.268C27.2024 11.268 26.493 11.5107 25.877 11.996C25.2797 12.4627 24.813 13.0787 24.477 13.844C24.141 14.6093 23.973 15.412 23.973 16.252C23.973 17.1667 24.2157 17.876 24.701 18.38C25.1864 18.8653 25.8117 19.108 26.577 19.108ZM43.7332 9.588C44.3305 8.86 45.0865 8.272 46.0012 7.824C46.9158 7.376 47.9145 7.152 48.9972 7.152C50.6772 7.152 52.0305 7.70267 53.0572 8.804C54.1025 9.88667 54.6252 11.3707 54.6252 13.256C54.6252 13.8533 54.5692 14.488 54.4572 15.16C54.1772 16.7653 53.6265 18.184 52.8052 19.416C51.9838 20.6293 50.9945 21.572 49.8372 22.244C48.6798 22.8973 47.4572 23.224 46.1692 23.224C45.0678 23.224 44.1438 23.0093 43.3972 22.58C42.6505 22.132 42.1092 21.544 41.7732 20.816L41.3812 23H36.5932L40.2612 2.28H45.0492L43.7332 9.588ZM49.6132 15.16C49.6692 14.8427 49.6972 14.5533 49.6972 14.292C49.6972 13.3587 49.4265 12.6307 48.8852 12.108C48.3625 11.5853 47.6905 11.324 46.8692 11.324C45.9172 11.324 45.0492 11.6693 44.2652 12.36C43.4812 13.0507 42.9772 13.9933 42.7532 15.188C42.6972 15.524 42.6692 15.832 42.6692 16.112C42.6692 17.0267 42.9305 17.7453 43.4532 18.268C43.9758 18.7907 44.6478 19.052 45.4692 19.052C46.4212 19.052 47.2892 18.7067 48.0732 18.016C48.8758 17.3067 49.3892 16.3547 49.6132 15.16ZM56.0451 15.16C56.3251 13.5547 56.8757 12.1453 57.6971 10.932C58.5184 9.71867 59.5077 8.78533 60.6651 8.132C61.8224 7.47867 63.0451 7.152 64.3331 7.152C65.4344 7.152 66.3584 7.376 67.1051 7.824C67.8517 8.272 68.3931 8.86 68.7291 9.588L69.1211 7.376H73.9091L71.1371 23H66.3491L66.7691 20.788C66.1717 21.516 65.4157 22.104 64.5011 22.552C63.5864 23 62.5784 23.224 61.4771 23.224C60.3757 23.224 59.3957 22.972 58.5371 22.468C57.6971 21.964 57.0437 21.2547 56.5771 20.34C56.1104 19.4067 55.8771 18.3147 55.8771 17.064C55.8771 16.4667 55.9331 15.832 56.0451 15.16ZM67.7491 15.188C67.8051 14.852 67.8331 14.544 67.8331 14.264C67.8331 13.3493 67.5624 12.6307 67.0211 12.108C66.4984 11.5853 65.8264 11.324 65.0051 11.324C64.0531 11.324 63.1851 11.6693 62.4011 12.36C61.6171 13.032 61.1224 13.9653 60.9171 15.16C60.8611 15.496 60.8331 15.804 60.8331 16.084C60.8331 16.9987 61.0944 17.7267 61.6171 18.268C62.1584 18.7907 62.8304 19.052 63.6331 19.052C64.5851 19.052 65.4531 18.7067 66.2371 18.016C67.0211 17.3253 67.5251 16.3827 67.7491 15.188ZM98.8894 8.44C98.6841 9.59733 98.2081 10.5587 97.4614 11.324C96.7148 12.0893 95.8188 12.6213 94.7734 12.92C95.7068 13.1253 96.4441 13.5827 96.9854 14.292C97.5268 15.0013 97.7974 15.832 97.7974 16.784C97.7974 17.0827 97.7694 17.372 97.7134 17.652C97.4334 19.2947 96.6308 20.6013 95.3054 21.572C93.9801 22.524 92.2908 23 90.2374 23H81.0814L84.5534 3.344H93.4014C95.1748 3.344 96.5468 3.708 97.5174 4.436C98.4881 5.164 98.9734 6.172 98.9734 7.46C98.9734 7.77733 98.9454 8.104 98.8894 8.44ZM91.0494 11.324C91.8521 11.324 92.4961 11.1467 92.9814 10.792C93.4668 10.4373 93.7654 9.924 93.8774 9.252C93.8961 9.14 93.9054 8.99067 93.9054 8.804C93.9054 8.26267 93.7281 7.852 93.3734 7.572C93.0188 7.27333 92.4961 7.124 91.8054 7.124H88.6694L87.9414 11.324H91.0494ZM92.9534 17.008C92.9908 16.784 93.0094 16.616 93.0094 16.504C93.0094 15.9627 92.8134 15.5427 92.4214 15.244C92.0294 14.9267 91.4881 14.768 90.7974 14.768H87.3254L86.5414 19.192H90.0694C90.8908 19.192 91.5441 19.0053 92.0294 18.632C92.5148 18.2587 92.8228 17.7173 92.9534 17.008ZM107.994 2.28L104.326 23H99.5385L103.206 2.28H107.994ZM113.256 5.752C112.51 5.752 111.912 5.556 111.464 5.164C111.035 4.75333 110.82 4.24 110.82 3.624C110.82 2.784 111.147 2.06533 111.8 1.468C112.454 0.870665 113.247 0.571998 114.18 0.571998C114.927 0.571998 115.515 0.777332 115.944 1.188C116.374 1.58 116.588 2.09333 116.588 2.728C116.588 3.54933 116.262 4.25867 115.608 4.856C114.955 5.45333 114.171 5.752 113.256 5.752ZM115.328 7.376L112.584 23H107.796L110.54 7.376H115.328ZM122.55 23.224C121.318 23.224 120.207 23.028 119.218 22.636C118.247 22.244 117.482 21.7027 116.922 21.012C116.362 20.3027 116.082 19.4907 116.082 18.576C116.082 18.4453 116.101 18.212 116.138 17.876H120.758C120.721 18.4547 120.889 18.9213 121.262 19.276C121.654 19.612 122.205 19.78 122.914 19.78C123.511 19.78 124.006 19.668 124.398 19.444C124.79 19.22 124.986 18.9027 124.986 18.492C124.986 18.1 124.771 17.792 124.342 17.568C123.931 17.3253 123.241 17.036 122.27 16.7C121.262 16.364 120.413 16.0373 119.722 15.72C119.05 15.384 118.471 14.908 117.986 14.292C117.501 13.676 117.258 12.9013 117.258 11.968C117.258 11.0533 117.529 10.232 118.07 9.504C118.611 8.75733 119.367 8.17867 120.338 7.768C121.327 7.35733 122.466 7.152 123.754 7.152C125.042 7.152 126.162 7.36667 127.114 7.796C128.066 8.20667 128.803 8.78533 129.326 9.532C129.849 10.2787 130.11 11.1187 130.11 12.052L130.082 12.472H125.742C125.779 11.912 125.611 11.464 125.238 11.128C124.865 10.792 124.333 10.624 123.642 10.624C123.101 10.624 122.653 10.736 122.298 10.96C121.962 11.184 121.794 11.492 121.794 11.884C121.794 12.2947 122.018 12.64 122.466 12.92C122.933 13.1813 123.651 13.48 124.622 13.816C125.63 14.152 126.461 14.488 127.114 14.824C127.786 15.1413 128.355 15.5987 128.822 16.196C129.307 16.7747 129.55 17.5027 129.55 18.38C129.55 19.388 129.242 20.256 128.626 20.984C128.029 21.712 127.198 22.272 126.134 22.664C125.089 23.0373 123.894 23.224 122.55 23.224ZM138.163 23.224C136.931 23.224 135.821 23.028 134.831 22.636C133.861 22.244 133.095 21.7027 132.535 21.012C131.975 20.3027 131.695 19.4907 131.695 18.576C131.695 18.4453 131.714 18.212 131.751 17.876H136.371C136.334 18.4547 136.502 18.9213 136.875 19.276C137.267 19.612 137.818 19.78 138.527 19.78C139.125 19.78 139.619 19.668 140.011 19.444C140.403 19.22 140.599 18.9027 140.599 18.492C140.599 18.1 140.385 17.792 139.955 17.568C139.545 17.3253 138.854 17.036 137.883 16.7C136.875 16.364 136.026 16.0373 135.335 15.72C134.663 15.384 134.085 14.908 133.599 14.292C133.114 13.676 132.871 12.9013 132.871 11.968C132.871 11.0533 133.142 10.232 133.683 9.504C134.225 8.75733 134.981 8.17867 135.951 7.768C136.941 7.35733 138.079 7.152 139.367 7.152C140.655 7.152 141.775 7.36667 142.727 7.796C143.679 8.20667 144.417 8.78533 144.939 9.532C145.462 10.2787 145.723 11.1187 145.723 12.052L145.695 12.472H141.355C141.393 11.912 141.225 11.464 140.851 11.128C140.478 10.792 139.946 10.624 139.255 10.624C138.714 10.624 138.266 10.736 137.911 10.96C137.575 11.184 137.407 11.492 137.407 11.884C137.407 12.2947 137.631 12.64 138.079 12.92C138.546 13.1813 139.265 13.48 140.235 13.816C141.243 14.152 142.074 14.488 142.727 14.824C143.399 15.1413 143.969 15.5987 144.435 16.196C144.921 16.7747 145.163 17.5027 145.163 18.38C145.163 19.388 144.855 20.256 144.239 20.984C143.642 21.712 142.811 22.272 141.747 22.664C140.702 23.0373 139.507 23.224 138.163 23.224ZM149.493 23.224C148.746 23.224 148.149 23.028 147.701 22.636C147.271 22.2253 147.057 21.712 147.057 21.096C147.057 20.2373 147.374 19.5093 148.009 18.912C148.662 18.3147 149.465 18.016 150.417 18.016C151.145 18.016 151.723 18.2213 152.153 18.632C152.582 19.024 152.797 19.5373 152.797 20.172C152.797 21.012 152.47 21.7307 151.817 22.328C151.182 22.9253 150.407 23.224 149.493 23.224Z" fill="#1F2130"/>
</svg>
