<svg width="145" height="22" viewBox="0 0 145 22" fill="none" xmlns="http://www.w3.org/2000/svg">
<path d="M18.116 6.44C17.9107 7.59733 17.4347 8.55867 16.688 9.324C15.9413 10.0893 15.0453 10.6213 14 10.92C14.9333 11.1253 15.6707 11.5827 16.212 12.292C16.7533 13.0013 17.024 13.832 17.024 14.784C17.024 15.0827 16.996 15.372 16.94 15.652C16.66 17.2947 15.8573 18.6013 14.532 19.572C13.2067 20.524 11.5173 21 9.464 21H0.308L3.78 1.344H12.628C14.4013 1.344 15.7733 1.708 16.744 2.436C17.7147 3.164 18.2 4.172 18.2 5.46C18.2 5.77733 18.172 6.104 18.116 6.44ZM10.276 9.324C11.0787 9.324 11.7227 9.14667 12.208 8.792C12.6933 8.43733 12.992 7.924 13.104 7.252C13.1227 7.14 13.132 6.99067 13.132 6.804C13.132 6.26267 12.9547 5.852 12.6 5.572C12.2453 5.27333 11.7227 5.124 11.032 5.124H7.896L7.168 9.324H10.276ZM12.18 15.008C12.2173 14.784 12.236 14.616 12.236 14.504C12.236 13.9627 12.04 13.5427 11.648 13.244C11.256 12.9267 10.7147 12.768 10.024 12.768H6.552L5.768 17.192H9.296C10.1173 17.192 10.7707 17.0053 11.256 16.632C11.7413 16.2587 12.0493 15.7173 12.18 15.008ZM25.905 21.224C24.561 21.224 23.3664 20.9533 22.321 20.412C21.2757 19.8707 20.4637 19.1053 19.885 18.116C19.325 17.1267 19.045 15.9787 19.045 14.672C19.045 12.8987 19.465 11.284 20.305 9.828C21.145 8.372 22.3024 7.23333 23.777 6.412C25.2517 5.572 26.8944 5.152 28.705 5.152C30.049 5.152 31.2437 5.432 32.289 5.992C33.353 6.53333 34.1744 7.29867 34.753 8.288C35.3317 9.27733 35.621 10.4253 35.621 11.732C35.621 13.524 35.1917 15.148 34.333 16.604C33.493 18.0413 32.3264 19.1707 30.833 19.992C29.3584 20.8133 27.7157 21.224 25.905 21.224ZM26.577 17.108C27.361 17.108 28.061 16.8747 28.677 16.408C29.3117 15.9227 29.797 15.3067 30.133 14.56C30.4877 13.7947 30.665 13.0013 30.665 12.18C30.665 11.2467 30.413 10.528 29.909 10.024C29.405 9.52 28.7704 9.268 28.005 9.268C27.2024 9.268 26.493 9.51067 25.877 9.996C25.2797 10.4627 24.813 11.0787 24.477 11.844C24.141 12.6093 23.973 13.412 23.973 14.252C23.973 15.1667 24.2157 15.876 24.701 16.38C25.1864 16.8653 25.8117 17.108 26.577 17.108ZM43.7332 7.588C44.3305 6.86 45.0865 6.272 46.0012 5.824C46.9158 5.376 47.9145 5.152 48.9972 5.152C50.6772 5.152 52.0305 5.70267 53.0572 6.804C54.1025 7.88667 54.6252 9.37067 54.6252 11.256C54.6252 11.8533 54.5692 12.488 54.4572 13.16C54.1772 14.7653 53.6265 16.184 52.8052 17.416C51.9838 18.6293 50.9945 19.572 49.8372 20.244C48.6798 20.8973 47.4572 21.224 46.1692 21.224C45.0678 21.224 44.1438 21.0093 43.3972 20.58C42.6505 20.132 42.1092 19.544 41.7732 18.816L41.3812 21H36.5932L40.2612 0.28H45.0492L43.7332 7.588ZM49.6132 13.16C49.6692 12.8427 49.6972 12.5533 49.6972 12.292C49.6972 11.3587 49.4265 10.6307 48.8852 10.108C48.3625 9.58533 47.6905 9.324 46.8692 9.324C45.9172 9.324 45.0492 9.66933 44.2652 10.36C43.4812 11.0507 42.9772 11.9933 42.7532 13.188C42.6972 13.524 42.6692 13.832 42.6692 14.112C42.6692 15.0267 42.9305 15.7453 43.4532 16.268C43.9758 16.7907 44.6478 17.052 45.4692 17.052C46.4212 17.052 47.2892 16.7067 48.0732 16.016C48.8758 15.3067 49.3892 14.3547 49.6132 13.16ZM56.0451 13.16C56.3251 11.5547 56.8757 10.1453 57.6971 8.932C58.5184 7.71867 59.5077 6.78533 60.6651 6.132C61.8224 5.47867 63.0451 5.152 64.3331 5.152C65.4344 5.152 66.3584 5.376 67.1051 5.824C67.8517 6.272 68.3931 6.86 68.7291 7.588L69.1211 5.376H73.9091L71.1371 21H66.3491L66.7691 18.788C66.1717 19.516 65.4157 20.104 64.5011 20.552C63.5864 21 62.5784 21.224 61.4771 21.224C60.3757 21.224 59.3957 20.972 58.5371 20.468C57.6971 19.964 57.0437 19.2547 56.5771 18.34C56.1104 17.4067 55.8771 16.3147 55.8771 15.064C55.8771 14.4667 55.9331 13.832 56.0451 13.16ZM67.7491 13.188C67.8051 12.852 67.8331 12.544 67.8331 12.264C67.8331 11.3493 67.5624 10.6307 67.0211 10.108C66.4984 9.58533 65.8264 9.324 65.0051 9.324C64.0531 9.324 63.1851 9.66933 62.4011 10.36C61.6171 11.032 61.1224 11.9653 60.9171 13.16C60.8611 13.496 60.8331 13.804 60.8331 14.084C60.8331 14.9987 61.0944 15.7267 61.6171 16.268C62.1584 16.7907 62.8304 17.052 63.6331 17.052C64.5851 17.052 65.4531 16.7067 66.2371 16.016C67.0211 15.3253 67.5251 14.3827 67.7491 13.188ZM101.577 1.344L98.1054 21H93.3174L94.7454 12.852H87.2974L85.8694 21H81.0814L84.5534 1.344H89.3414L87.9694 9.072H95.4174L96.7894 1.344H101.577ZM119.734 5.376L116.99 21H112.202L112.566 18.872C111.95 19.5627 111.194 20.1227 110.298 20.552C109.421 20.9627 108.478 21.168 107.47 21.168C105.902 21.168 104.67 20.7293 103.774 19.852C102.878 18.956 102.43 17.7147 102.43 16.128C102.43 15.5307 102.477 14.9893 102.57 14.504L104.194 5.376H108.954L107.47 13.86C107.414 14.1587 107.386 14.448 107.386 14.728C107.386 15.512 107.601 16.1187 108.03 16.548C108.478 16.9587 109.094 17.164 109.878 17.164C110.774 17.164 111.53 16.9027 112.146 16.38C112.781 15.8387 113.201 15.0733 113.406 14.084L114.946 5.376H119.734ZM127.569 7.588C128.166 6.86 128.922 6.272 129.837 5.824C130.752 5.376 131.75 5.152 132.833 5.152C134.513 5.152 135.866 5.70267 136.893 6.804C137.938 7.88667 138.461 9.37067 138.461 11.256C138.461 11.8533 138.405 12.488 138.293 13.16C138.013 14.7653 137.462 16.184 136.641 17.416C135.82 18.6293 134.83 19.572 133.673 20.244C132.516 20.8973 131.293 21.224 130.005 21.224C128.904 21.224 127.98 21.0093 127.233 20.58C126.486 20.132 125.945 19.544 125.609 18.816L125.217 21H120.429L124.097 0.28H128.885L127.569 7.588ZM133.449 13.16C133.505 12.8427 133.533 12.5533 133.533 12.292C133.533 11.3587 133.262 10.6307 132.721 10.108C132.198 9.58533 131.526 9.324 130.705 9.324C129.753 9.324 128.885 9.66933 128.101 10.36C127.317 11.0507 126.813 11.9933 126.589 13.188C126.533 13.524 126.505 13.832 126.505 14.112C126.505 15.0267 126.766 15.7453 127.289 16.268C127.812 16.7907 128.484 17.052 129.305 17.052C130.257 17.052 131.125 16.7067 131.909 16.016C132.712 15.3067 133.225 14.3547 133.449 13.16ZM141.645 21.224C140.898 21.224 140.301 21.028 139.853 20.636C139.424 20.2253 139.209 19.712 139.209 19.096C139.209 18.2373 139.526 17.5093 140.161 16.912C140.814 16.3147 141.617 16.016 142.569 16.016C143.297 16.016 143.876 16.2213 144.305 16.632C144.734 17.024 144.949 17.5373 144.949 18.172C144.949 19.012 144.622 19.7307 143.969 20.328C143.334 20.9253 142.56 21.224 141.645 21.224Z" fill="#1F2130"/>
</svg>
